<?xml version="1.0" standalone="no"?>
<!DOCTYPE svg PUBLIC "-//W3C//DTD SVG 20010904//EN"
 "http://www.w3.org/TR/2001/REC-SVG-20010904/DTD/svg10.dtd">
<svg version="1.0" xmlns="http://www.w3.org/2000/svg"
 width="1024.000000pt" height="1024.000000pt" viewBox="0 0 1024.000000 1024.000000"
 preserveAspectRatio="xMidYMid meet">
<metadata>
Created by potrace 1.11, written by Peter Selinger 2001-2013
</metadata>
<g transform="translate(0.000000,1024.000000) scale(0.100000,-0.100000)"
fill="#000000" stroke="none">
<path d="M4945 10150 c-3 -5 -26 -10 -50 -10 -46 0 -93 -21 -139 -61 -19 -17
-26 -32 -26 -59 0 -20 -3 -40 -6 -43 -10 -9 -54 -120 -54 -133 0 -22 -34 -26
-250 -35 -243 -10 -277 -14 -375 -41 -38 -10 -82 -22 -97 -25 -16 -3 -28 -9
-28 -14 0 -5 -11 -9 -25 -9 -14 0 -25 -4 -25 -10 0 -5 -7 -10 -15 -10 -8 0
-25 -5 -38 -12 -47 -24 -57 -28 -72 -28 -8 0 -15 -4 -15 -10 0 -5 -9 -10 -19
-10 -11 0 -21 -4 -23 -8 -1 -5 -25 -23 -53 -42 -27 -19 -56 -40 -63 -47 -7 -7
-26 -20 -42 -30 -17 -9 -30 -21 -30 -25 0 -4 -7 -8 -15 -8 -8 0 -15 -7 -15
-15 0 -9 -11 -21 -25 -27 -14 -6 -25 -15 -25 -20 0 -4 -9 -8 -21 -8 -22 0 -73
-31 -100 -62 -25 -28 -31 -22 -23 25 4 23 9 74 11 112 3 39 9 74 14 80 5 5 9
21 9 36 0 15 5 31 10 34 6 3 10 17 10 30 0 13 4 26 9 29 5 3 11 23 15 43 16
110 25 162 34 200 10 46 8 53 -20 53 -10 0 -18 5 -18 10 0 6 -13 10 -29 10
-16 0 -41 4 -55 10 -33 12 -581 14 -628 2 -23 -6 -38 -6 -40 0 -2 5 -11 6 -20
3 -20 -8 -34 -96 -24 -158 4 -23 16 -123 27 -222 25 -237 29 -264 40 -271 5
-3 9 -23 9 -45 0 -21 4 -39 9 -39 5 0 11 -19 15 -42 5 -44 17 -114 36 -205 17
-89 28 -145 38 -203 6 -30 16 -73 22 -95 6 -22 14 -53 17 -70 3 -16 9 -32 13
-35 4 -3 10 -26 14 -53 l7 -47 -103 2 c-130 2 -128 4 -256 -122 -111 -109
-154 -199 -193 -405 -41 -221 -47 -287 -61 -665 -15 -395 -14 -1074 1 -1195
17 -129 30 -306 42 -570 14 -300 14 -370 2 -490 -12 -123 -3 -294 37 -770 6
-71 15 -191 20 -265 12 -177 27 -400 33 -472 6 -63 -6 -78 -71 -92 -17 -4 -34
-12 -37 -17 -4 -5 -15 -9 -26 -9 -10 0 -19 -4 -19 -10 0 -5 -7 -10 -15 -10 -8
0 -30 -9 -50 -20 -20 -11 -42 -20 -50 -20 -8 0 -15 -4 -15 -10 0 -5 -9 -10
-20 -10 -11 0 -20 -4 -20 -10 0 -5 -9 -10 -20 -10 -11 0 -20 -4 -20 -10 0 -5
-9 -10 -19 -10 -11 0 -23 -4 -26 -10 -3 -5 -21 -10 -39 -10 -18 0 -36 -3 -39
-7 -11 -10 -178 -69 -267 -93 -25 -6 -53 -16 -62 -21 -10 -5 -29 -9 -43 -9
-14 0 -25 -4 -25 -10 0 -5 -13 -10 -29 -10 -17 0 -33 -5 -36 -10 -3 -5 -19
-10 -36 -10 -16 0 -29 -4 -29 -10 0 -5 -13 -10 -29 -10 -17 0 -33 -5 -36 -10
-3 -5 -16 -10 -27 -10 -29 0 -113 -27 -160 -51 -10 -5 -24 -9 -31 -9 -14 0
-130 -44 -159 -60 -10 -6 -27 -10 -38 -10 -11 0 -28 -4 -38 -8 -9 -5 -48 -24
-87 -43 -38 -19 -71 -37 -73 -41 -2 -5 -8 -8 -13 -8 -21 0 -159 -102 -198
-147 -24 -26 -66 -67 -94 -91 -76 -62 -117 -104 -117 -118 0 -7 -5 -14 -12
-16 -7 -3 -11 -24 -10 -55 1 -51 24 -104 62 -145 11 -12 20 -25 20 -29 0 -4 5
-20 12 -36 6 -15 10 -32 9 -37 -4 -15 50 -136 60 -136 5 0 9 -7 9 -15 0 -9 5
-21 10 -28 6 -7 29 -41 51 -76 22 -34 53 -77 69 -95 17 -17 30 -35 30 -39 0
-4 16 -24 36 -43 33 -33 36 -35 41 -15 5 18 10 15 52 -27 25 -26 91 -85 146
-130 55 -45 112 -94 128 -107 15 -14 31 -25 36 -25 4 0 21 -12 37 -27 26 -25
90 -78 148 -123 17 -13 76 -66 121 -107 8 -7 18 -13 24 -13 6 0 11 -4 11 -8 0
-4 13 -16 30 -25 16 -10 35 -23 42 -30 30 -29 188 -147 198 -147 5 0 10 -4 10
-10 0 -5 9 -10 20 -10 17 0 110 -81 110 -96 0 -2 21 -23 47 -46 26 -24 76 -71
112 -105 36 -35 89 -80 118 -100 l51 -38 12 -95 c12 -94 9 -371 -5 -457 l-7
-43 376 0 376 0 0 68 c0 64 15 122 33 122 4 0 7 11 7 24 0 14 5 28 10 31 6 3
10 15 10 26 0 10 4 27 9 37 5 9 16 32 23 49 7 18 18 33 23 33 11 0 35 56 35
81 0 14 35 136 51 174 23 57 49 144 49 163 0 12 5 22 10 22 6 0 10 13 10 29 0
17 4 33 10 36 6 3 10 19 10 34 0 20 6 30 20 34 14 4 20 14 20 35 0 17 4 33 9
36 5 3 11 20 14 38 16 90 20 106 39 148 15 31 21 67 22 118 0 68 2 73 21 68
11 -3 38 -6 61 -6 29 0 51 -8 77 -28 43 -33 57 -60 57 -112 0 -21 4 -41 9 -44
5 -3 11 -23 15 -43 13 -90 19 -113 27 -113 13 0 11 -44 -2 -57 -16 -16 0 -276
30 -488 11 -75 8 -315 -5 -457 l-5 -58 1576 0 1575 0 0 28 c0 15 -5 33 -11 39
-13 13 -6 302 10 408 23 151 32 256 35 400 3 95 10 168 19 200 8 28 25 94 37
147 25 115 58 158 119 158 20 0 53 3 74 6 36 6 37 6 37 -24 0 -17 -5 -32 -10
-34 -10 -3 -2 -35 21 -93 4 -11 10 -42 13 -70 4 -48 13 -92 35 -180 5 -22 15
-61 20 -87 12 -53 68 -233 82 -260 5 -10 9 -27 9 -37 0 -11 5 -23 10 -26 6 -3
10 -17 10 -31 0 -13 5 -24 10 -24 6 0 10 -13 10 -30 0 -16 5 -30 10 -30 6 0
10 -11 10 -25 0 -14 5 -25 10 -25 6 0 10 -9 10 -19 0 -11 5 -23 10 -26 6 -3
10 -17 10 -31 0 -13 5 -24 10 -24 6 0 10 -7 10 -15 0 -14 18 -53 30 -65 50
-50 71 -85 65 -109 -3 -14 -10 -47 -14 -73 l-7 -48 284 0 285 0 -6 83 c-3 45
-9 109 -13 143 -6 56 -4 63 17 83 l24 22 12 -113 c6 -62 12 -137 12 -165 l1
-53 50 0 c48 0 49 1 59 37 6 21 11 106 11 190 0 90 4 154 10 158 6 3 10 20 10
36 0 21 11 40 35 64 19 19 38 35 43 35 5 0 17 10 28 22 11 13 35 34 54 48 43
33 78 63 153 133 195 182 224 207 260 226 15 8 27 18 27 23 0 4 6 8 13 8 7 0
19 9 27 20 8 11 19 20 25 20 5 0 32 20 59 45 26 25 51 45 55 45 3 0 33 25 66
55 33 30 63 55 67 55 4 0 40 33 81 72 41 40 87 80 103 88 16 8 34 20 41 25 7
6 19 16 27 23 8 6 19 12 23 12 4 0 21 11 37 25 16 14 32 25 36 25 4 0 25 17
47 38 22 20 66 60 98 87 32 28 74 65 92 83 24 24 40 32 55 29 15 -4 30 4 54
29 19 19 34 38 34 42 0 4 10 18 23 32 32 34 107 147 107 159 0 6 5 11 10 11 6
0 10 9 10 20 0 11 3 20 8 20 8 0 48 75 57 110 4 14 17 44 30 67 13 23 26 57
30 75 4 18 18 54 31 81 34 69 23 109 -46 173 -80 75 -126 114 -133 114 -5 0
-25 17 -45 38 -20 21 -65 57 -99 80 -35 24 -63 48 -63 55 0 7 -19 21 -43 33
-23 11 -60 30 -82 42 -92 47 -175 82 -197 82 -13 0 -65 16 -116 35 -51 19
-103 35 -117 35 -14 0 -25 5 -25 10 0 6 -13 10 -29 10 -17 0 -33 4 -36 10 -3
5 -17 10 -31 10 -13 0 -32 4 -42 9 -9 5 -37 14 -62 21 -25 7 -53 16 -62 21
-10 5 -29 9 -43 9 -14 0 -25 5 -25 10 0 6 -14 10 -30 10 -17 0 -40 5 -53 12
-47 24 -57 28 -72 28 -8 0 -23 4 -33 9 -9 5 -46 19 -82 31 -176 59 -208 71
-250 92 -25 13 -47 25 -50 28 -3 3 -17 11 -32 19 -16 8 -28 18 -28 23 0 4 -9
8 -20 8 -11 0 -20 4 -20 8 0 5 -12 15 -27 23 -16 8 -30 16 -33 19 -3 3 -14 10
-25 16 -19 11 -20 23 -23 305 -2 162 2 544 8 849 10 517 17 750 41 1350 5 129
13 350 18 491 4 141 11 261 15 267 3 6 2 13 -3 16 -5 3 -7 15 -4 26 4 14 1 20
-8 18 -12 -2 -14 31 -14 185 0 103 2 195 6 204 5 15 8 14 25 -6 43 -53 98
-101 115 -101 27 0 25 41 -5 94 -46 82 -51 91 -57 96 -3 3 -16 25 -30 50 -13
25 -27 47 -31 50 -4 3 -9 109 -11 235 -5 241 -23 411 -52 478 -4 11 -2 29 5
43 15 26 5 47 -11 24 -7 -11 -8 -7 -3 13 3 15 2 33 -3 40 -5 6 -18 35 -28 62
-21 56 -72 148 -86 153 -5 2 -9 10 -9 18 0 8 -4 14 -8 14 -5 0 -14 11 -21 24
-15 27 -50 46 -86 46 -14 0 -25 5 -25 10 0 6 -16 10 -36 10 -42 0 -167 -21
-174 -29 -6 -7 -48 -31 -54 -31 -8 0 7 140 45 435 5 39 16 126 24 195 14 123
23 185 45 305 19 110 32 199 37 270 2 39 9 74 14 80 5 5 9 60 9 121 0 112 0
113 -27 132 -56 38 -89 45 -178 37 -55 -4 -91 -12 -100 -22 -12 -11 -27 -13
-68 -8 -107 15 -258 7 -332 -16 -137 -44 -141 -63 -66 -341 17 -64 31 -128 31
-142 0 -13 5 -28 10 -31 6 -3 10 -21 10 -40 0 -19 5 -37 10 -40 6 -3 10 -24
10 -45 0 -21 4 -41 9 -44 5 -3 12 -24 15 -46 3 -22 9 -58 12 -80 3 -22 10 -43
15 -46 5 -3 9 -19 9 -35 0 -17 5 -39 11 -50 5 -11 9 -43 7 -72 l-3 -52 -32 50
c-18 28 -40 59 -50 70 -10 11 -29 41 -42 68 -13 26 -28 47 -33 47 -4 0 -8 5
-8 11 0 7 -8 19 -18 28 -9 9 -24 28 -31 44 -8 15 -26 30 -39 34 -13 3 -48 30
-78 59 -29 30 -56 54 -60 54 -3 0 -28 16 -54 35 -26 19 -52 35 -58 35 -6 0
-12 4 -14 8 -5 14 -136 72 -161 72 -13 0 -34 9 -47 20 -12 10 -35 25 -51 32
-16 7 -29 16 -29 20 0 5 -8 8 -18 8 -10 0 -23 5 -29 11 -8 8 -17 8 -33 -1 -18
-9 -24 -8 -38 7 -9 10 -44 32 -77 48 -33 15 -68 32 -77 37 -10 4 -25 8 -33 8
-8 0 -15 5 -15 10 0 6 -9 10 -20 10 -11 0 -35 9 -55 20 -20 11 -47 20 -60 20
-14 0 -25 5 -25 10 0 6 -13 10 -29 10 -17 0 -33 5 -36 10 -3 6 -21 10 -38 10
-18 0 -39 4 -46 9 -9 6 -22 6 -34 -1 -20 -10 -77 1 -119 23 -10 5 -29 9 -42 9
-14 0 -28 5 -31 10 -4 6 -68 10 -161 10 -96 0 -154 -4 -154 -10 0 -5 -18 -10
-40 -10 -22 0 -40 -4 -40 -10 0 -5 -9 -10 -20 -10 -11 0 -29 -4 -40 -10 -11
-5 -29 -15 -41 -21 -12 -6 -23 -8 -26 -5 -6 5 36 69 49 74 4 2 8 8 8 14 0 14
63 71 98 89 15 8 33 20 40 27 7 6 17 12 21 12 4 0 18 9 31 20 26 22 21 50 -9
50 -11 0 -23 5 -26 10 -3 6 -17 10 -30 10 -13 0 -27 -4 -30 -10z m2290 -150
c17 -4 22 -8 13 -9 -10 0 -18 -5 -18 -11 0 -5 -16 -10 -35 -10 -19 0 -35 2
-35 4 0 2 -3 11 -6 20 -5 12 0 16 22 15 16 -1 43 -5 59 -9z m-139 -16 c-3 -9
-6 -20 -6 -25 0 -5 -9 -9 -19 -9 -11 0 -23 -4 -26 -10 -3 -5 -21 -10 -40 -10
-19 0 -37 -4 -40 -10 -8 -12 -52 -13 -59 -1 -9 14 4 41 20 41 8 0 14 5 14 10
0 6 12 10 28 10 15 0 34 5 42 10 8 5 32 10 54 10 31 0 37 -3 32 -16z m-4223
-51 c-7 -2 -13 -13 -13 -22 0 -15 -13 -19 -82 -24 -95 -8 -116 2 -67 32 26 16
50 21 104 20 39 0 64 -3 58 -6z m102 -3 c-28 -12 -45 -12 -45 0 0 6 15 10 33
9 27 0 29 -2 12 -9z m3981 -1274 c13 -11 29 -26 36 -32 22 -20 149 -162 166
-186 9 -13 24 -30 34 -39 10 -9 18 -24 18 -33 0 -9 5 -16 10 -16 6 0 10 -9 10
-20 0 -11 5 -20 10 -20 19 0 10 -53 -12 -71 -11 -11 -24 -19 -27 -19 -18 0
-108 79 -149 132 -12 15 -11 16 12 5 14 -7 26 -15 26 -19 0 -5 6 -8 14 -8 8 0
17 -6 19 -12 3 -8 6 -6 6 5 1 18 -6 28 -46 72 -13 13 -23 27 -23 30 0 4 -6 12
-12 20 -27 27 -48 56 -48 63 0 4 -9 14 -20 22 -11 8 -20 19 -20 25 0 6 -8 20
-18 31 -54 59 -70 111 -30 98 12 -3 32 -16 44 -28z m-3932 -188 c18 -18 23
-118 6 -118 -6 0 -10 -33 -10 -79 0 -44 -3 -81 -7 -84 -5 -2 -1 -2 7 1 41 13
79 -11 80 -50 0 -10 5 -18 10 -18 6 0 10 -7 10 -15 0 -22 43 -85 58 -85 6 0
12 5 12 10 0 6 8 10 18 10 9 0 28 14 41 30 13 17 30 30 38 30 8 0 36 -22 62
-50 49 -51 92 -65 118 -39 6 6 19 9 29 7 16 -3 14 -9 -17 -41 -29 -29 -45 -37
-73 -37 -38 0 -59 16 -101 73 -24 34 -27 34 -47 0 -38 -64 -56 -77 -111 -77
-53 -1 -106 25 -107 52 0 6 -9 12 -20 12 -16 0 -20 -7 -20 -30 0 -16 -4 -30
-9 -30 -5 0 -11 -17 -14 -37 -17 -114 -27 -133 -74 -133 -34 0 -53 16 -53 44
0 11 -5 34 -12 52 -9 25 -9 39 0 56 6 13 13 57 16 98 6 90 29 215 46 255 5 11
16 56 25 100 22 105 55 136 99 93z m3980 -24 c11 -4 16 -19 16 -46 0 -55 -37
-88 -97 -88 -24 0 -43 5 -43 10 0 6 -7 10 -15 10 -8 0 -15 -4 -15 -10 0 -5 -4
-10 -10 -10 -5 0 -10 11 -10 24 0 30 38 56 82 56 28 0 35 5 45 30 12 31 19 35
47 24z m-2449 -119 c14 -13 25 -28 25 -33 0 -4 8 -17 18 -28 9 -10 28 -43 42
-71 27 -57 38 -63 60 -33 10 14 26 20 55 20 49 -1 75 -19 75 -54 0 -22 -4 -26
-30 -26 -16 0 -30 5 -30 10 0 6 -9 10 -20 10 -11 0 -20 5 -20 10 0 6 -9 10
-20 10 -12 0 -20 -7 -20 -17 0 -9 -10 -27 -22 -40 -22 -24 -48 -31 -48 -13 0
6 -7 10 -16 10 -19 0 -59 43 -77 83 -6 15 -15 27 -19 27 -5 0 -8 14 -8 30 0
17 -4 30 -10 30 -14 0 -12 68 3 85 18 21 35 18 62 -10z m2295 -64 c0 -6 -4
-13 -10 -16 -5 -3 -10 -19 -10 -36 0 -16 -4 -29 -9 -29 -5 0 -13 -9 -16 -20
-3 -11 -13 -20 -21 -20 -8 0 -14 -4 -14 -10 0 -6 -31 -10 -74 -10 -41 0 -78 5
-81 10 -3 6 -22 10 -41 10 -19 0 -34 3 -34 6 0 17 34 34 70 34 51 0 97 20 135
58 22 23 39 31 68 31 20 1 37 -3 37 -8z m-1403 -273 c31 -29 78 -77 107 -106
53 -55 70 -72 398 -395 l201 -198 -29 -31 c-16 -17 -39 -42 -51 -55 -13 -13
-23 -28 -23 -32 0 -10 -153 -163 -205 -206 -20 -16 -47 -39 -59 -50 -27 -24
-62 -45 -76 -45 -6 0 -20 -9 -32 -20 -12 -11 -29 -20 -39 -20 -18 0 -29 -19
-29 -50 0 -10 -5 -31 -11 -47 -10 -27 -11 -27 -22 -8 -6 11 -15 54 -19 95 -8
74 -17 131 -38 240 -6 30 -15 78 -20 105 -13 73 -28 143 -40 200 -6 28 -14 67
-17 88 -3 20 -9 40 -14 43 -5 3 -9 20 -9 37 0 18 -12 75 -26 127 -23 88 -24
105 -18 238 4 78 9 142 12 142 2 0 29 -24 59 -52z m-3119 -396 c1 -145 6 -262
11 -262 9 0 37 -142 46 -235 18 -177 18 -191 1 -170 -8 11 -16 28 -16 37 0 9
-4 20 -10 23 -5 3 -10 22 -10 41 0 19 -4 34 -10 34 -5 0 -10 14 -10 30 0 17
-4 30 -10 30 -6 0 -10 -31 -10 -73 0 -75 -9 -97 -41 -97 -24 0 -31 51 -36 294
-2 137 0 213 7 220 6 6 10 57 10 119 0 170 27 286 64 274 7 -2 12 -90 14 -265z
m2074 -95 c46 -45 108 -102 138 -127 30 -25 58 -50 63 -57 4 -6 56 -54 115
-105 59 -51 119 -105 134 -120 14 -16 29 -28 32 -28 4 0 22 -15 40 -32 63 -61
94 -88 103 -88 4 0 37 -27 73 -61 122 -113 139 -128 158 -138 10 -5 32 -29 48
-53 16 -24 32 -45 35 -48 3 -3 14 -22 24 -42 9 -21 21 -38 26 -38 5 0 9 -6 9
-13 0 -7 13 -28 30 -47 16 -19 29 -41 30 -47 0 -7 5 -13 10 -13 6 0 10 -7 10
-15 0 -8 3 -15 8 -15 4 0 15 -18 25 -40 9 -22 21 -40 26 -40 5 0 11 -9 14 -20
3 -11 1 -20 -4 -20 -5 0 -9 -4 -9 -10 0 -5 7 -10 15 -10 23 0 18 -16 -5 -17
-11 -1 -20 3 -20 8 0 13 -100 9 -117 -4 -9 -6 -13 -5 -13 3 0 9 -4 10 -13 2
-17 -14 -127 -12 -146 2 -11 8 -13 8 -7 -1 4 -7 2 -13 -3 -13 -6 0 -11 5 -11
10 0 6 -9 10 -21 10 -11 0 -18 -4 -15 -8 3 -5 -3 -8 -12 -8 -61 0 -92 -6 -105
-19 -8 -8 -18 -11 -21 -7 -13 12 -81 12 -91 -1 -13 -15 -39 -21 -30 -7 4 7 -5
10 -25 8 -17 -1 -34 -6 -36 -10 -3 -4 -10 -8 -15 -8 -6 0 -8 4 -5 8 3 5 -1 9
-9 9 -8 0 -12 -4 -9 -9 6 -9 4 -9 -48 -12 -21 -1 -41 -5 -44 -9 -11 -11 -26
-8 -19 3 3 6 -1 7 -9 4 -9 -3 -13 -10 -10 -16 3 -5 0 -9 -7 -7 -32 4 -70 -2
-65 -10 7 -10 -17 -21 -42 -20 -12 0 -10 3 6 9 12 5 22 14 22 20 0 13 -17 13
-25 0 -4 -6 -15 -8 -26 -5 -10 4 -19 2 -19 -4 0 -5 -13 -12 -30 -16 -16 -4
-30 -11 -30 -16 0 -5 -5 -9 -11 -9 -7 0 -18 -8 -25 -17 -10 -13 -13 -14 -14
-4 0 10 -6 7 -19 -7 -10 -12 -26 -22 -35 -22 -9 0 -16 -4 -16 -10 0 -5 -5 -10
-11 -10 -7 0 -20 -10 -30 -22 -11 -11 -22 -18 -26 -15 -3 4 2 16 12 27 23 26
15 26 -14 1 -13 -11 -20 -24 -17 -30 10 -15 -15 -25 -25 -10 -8 12 -10 12 -18
-1 -12 -18 -5 -30 17 -31 14 0 13 -2 -3 -8 -11 -5 -24 -6 -30 -3 -5 4 -19 6
-30 7 -12 0 -19 6 -17 15 3 11 -1 10 -17 -4 -11 -10 -24 -15 -30 -12 -5 4 -12
3 -15 -2 -4 -7 -29 -8 -98 -3 -19 2 -5 19 27 34 58 28 42 37 -65 37 -103 0
-155 16 -187 59 -23 32 54 80 83 51 6 -6 59 -15 119 -20 86 -8 113 -14 130
-30 12 -11 29 -20 38 -20 25 0 21 -17 -9 -36 -18 -12 -22 -19 -13 -25 7 -4 17
-6 21 -3 4 3 16 0 27 -5 22 -12 35 -1 45 42 4 18 13 27 25 27 11 0 22 6 24 13
4 9 8 8 16 -3 10 -13 12 -13 22 0 8 11 12 12 16 3 7 -18 30 -16 37 3 4 11 -1
18 -14 21 -30 8 -24 23 8 23 15 -1 48 4 74 11 58 15 136 84 145 129 3 17 9 30
14 30 5 0 9 24 10 53 1 48 2 50 12 26 7 -14 17 -24 23 -22 6 2 15 -7 21 -19
11 -23 11 -23 19 7 7 30 -10 159 -24 179 -14 19 -34 87 -28 93 3 4 6 2 6 -3 0
-13 68 -49 77 -41 9 10 -35 92 -63 118 -42 39 -32 49 51 49 l75 0 82 -85 c78
-82 82 -84 93 -62 6 12 9 27 6 32 -3 6 -7 21 -9 35 -2 14 -7 29 -13 35 -5 5
-9 18 -9 28 0 54 -77 152 -112 141 -13 -4 -18 0 -18 15 0 27 -16 27 -23 1 -3
-11 -12 -20 -21 -20 -12 0 -16 -10 -16 -34 0 -19 5 -38 10 -41 16 -10 11 -25
-8 -25 -10 0 -37 9 -60 20 -22 11 -48 20 -57 20 -8 0 -15 5 -15 10 0 6 -7 10
-15 10 -9 0 -25 9 -37 20 -12 11 -28 20 -35 20 -7 0 -13 4 -13 8 0 4 -14 16
-30 26 -17 9 -41 28 -55 42 -13 13 -27 24 -29 24 -7 0 -47 33 -94 78 -18 17
-37 32 -41 32 -10 0 -142 141 -157 166 -9 15 -7 23 8 38 10 11 18 25 18 33 0
7 4 13 8 13 5 0 17 18 27 40 10 22 22 40 27 40 4 0 8 7 8 15 0 8 4 15 9 15 5
0 14 14 21 30 7 17 16 30 20 30 3 0 13 12 21 28 19 37 32 51 46 52 6 0 49 -37
95 -83z m1794 -249 c9 -7 23 -21 32 -32 9 -10 34 -34 55 -54 41 -39 48 -62 18
-62 -11 0 -23 -4 -26 -10 -3 -5 -15 -10 -25 -10 -10 0 -20 -4 -22 -9 -1 -5
-66 -39 -143 -76 -77 -38 -166 -86 -197 -107 -32 -21 -58 -34 -58 -27 0 10 63
79 73 79 9 0 94 88 117 121 13 19 31 41 40 49 9 8 32 37 50 65 35 51 62 85 68
85 1 0 10 -6 18 -12z m-2104 -45 c9 -16 25 -37 35 -48 10 -11 30 -36 43 -55
29 -41 118 -130 161 -161 17 -12 28 -24 25 -27 -3 -2 -11 -1 -18 5 -32 24
-234 63 -358 69 -78 3 -73 0 -53 37 10 17 25 39 33 47 8 8 21 27 29 43 8 15
18 27 23 27 4 0 8 5 8 10 0 12 43 80 50 80 3 0 13 -12 22 -27z m2332 -179 c32
-31 56 -57 54 -59 -2 -2 -21 1 -43 7 -22 5 -77 15 -122 21 -46 5 -83 14 -83
19 0 4 6 8 13 8 7 0 22 8 33 18 26 25 56 41 74 42 9 0 42 -25 74 -56z m1456
17 c30 -113 53 -234 57 -298 3 -40 9 -73 14 -73 5 0 9 -11 9 -25 0 -14 5 -25
10 -25 6 0 10 -39 10 -97 -1 -97 -11 -133 -39 -133 -10 0 -16 43 -11 79 1 12
-9 45 -30 96 -5 11 -11 38 -14 60 -3 22 -10 69 -16 105 -26 159 -32 200 -37
273 -4 72 -3 77 16 77 15 0 23 -10 31 -39z m-86 -201 c4 -25 9 -82 12 -127 6
-80 5 -83 -21 -108 -34 -31 -75 -34 -75 -5 0 11 -6 20 -12 20 -14 0 -38 44
-38 68 0 8 10 27 21 44 l21 29 14 -27 c8 -14 14 -34 14 -43 0 -23 9 -31 26
-24 11 4 14 31 14 121 0 116 12 141 24 52z m-1326 -127 c6 -6 12 -16 12 -22 0
-6 5 -11 10 -11 6 0 10 -9 10 -19 0 -11 5 -21 12 -23 6 -2 9 -12 5 -21 -16
-43 -157 3 -157 51 0 44 75 76 108 45z m84 5 c47 -27 61 -46 54 -72 -5 -20
-13 -26 -35 -26 -23 0 -32 7 -43 30 -7 17 -16 30 -20 30 -5 0 -8 7 -8 15 0 8
-4 15 -10 15 -5 0 -10 5 -10 10 0 14 46 12 72 -2z m-2654 -21 c18 -21 -46
-119 -85 -130 -27 -8 -35 -6 -57 16 -14 14 -26 31 -26 37 0 20 45 59 85 73 52
19 70 20 83 4z m42 -46 c0 -5 -7 -14 -15 -21 -12 -10 -15 -10 -15 2 0 8 3 18
7 21 9 10 23 9 23 -2z m1768 -183 l-3 -93 25 0 c16 0 28 -8 35 -22 5 -13 13
-23 17 -23 5 0 8 -9 8 -20 0 -11 4 -20 9 -20 5 0 11 -7 15 -15 3 -9 0 -15 -9
-15 -8 0 -15 7 -15 15 0 18 -17 20 -23 3 -3 -10 -9 -10 -28 1 -17 10 -24 11
-27 2 -5 -15 -52 26 -52 45 0 7 -6 17 -14 21 -21 12 -48 71 -36 78 14 9 53 -5
67 -24 11 -14 12 -13 13 7 0 12 -4 22 -10 22 -5 0 -10 8 -10 19 0 10 -7 24
-15 31 -8 7 -15 17 -15 22 0 19 36 57 53 58 17 0 18 -8 15 -92z m977 -22 c4
-29 5 -75 3 -101 -4 -61 13 -68 37 -15 23 52 31 44 14 -14 -10 -33 -20 -48
-40 -57 -15 -6 -30 -17 -33 -25 -10 -26 -34 -15 -41 19 -4 17 -12 35 -18 39
-8 5 -8 16 1 41 7 18 12 63 12 100 l0 67 29 0 c28 0 30 -3 36 -54z m-2915 -84
c0 -43 3 -82 7 -86 4 -3 12 -22 19 -41 l12 -35 -37 0 c-28 0 -41 -7 -60 -30
-26 -33 -41 -38 -41 -15 0 9 -6 18 -14 21 -18 7 -31 142 -21 214 l7 50 64 0
64 0 0 -78z m2168 29 c12 -11 22 -26 22 -34 0 -20 65 -61 120 -75 25 -7 68
-11 97 -9 33 3 54 0 57 -7 3 -7 8 -6 15 4 9 12 11 12 17 -3 3 -9 15 -17 25
-17 21 0 26 16 7 23 -21 7 -6 14 42 20 25 2 39 3 33 0 -18 -7 -16 -23 3 -23 9
0 14 -6 11 -12 -2 -7 -11 -13 -21 -13 -9 0 -21 -6 -25 -14 -6 -10 -10 -10 -16
-2 -5 8 -12 6 -25 -9 -9 -11 -25 -20 -34 -20 -9 0 -16 -3 -16 -7 0 -13 -52
-33 -82 -33 -16 0 -31 7 -37 19 -6 10 -43 34 -83 54 -40 19 -82 44 -92 56 -11
12 -24 21 -29 21 -26 0 -50 74 -30 93 10 10 16 8 41 -12z m-1992 -75 c8 -8 14
-24 14 -35 0 -11 8 -22 18 -24 90 -25 115 -33 119 -42 2 -6 19 -9 38 -7 21 3
35 0 35 -7 0 -6 -6 -8 -14 -5 -8 3 -17 1 -21 -5 -4 -7 6 -11 27 -11 27 0 34
-4 35 -20 1 -11 -4 -20 -13 -20 -8 0 -14 5 -14 10 0 6 -10 10 -23 10 -13 0
-27 4 -32 9 -6 5 -41 12 -80 15 -38 3 -83 8 -100 10 -16 2 -33 5 -37 5 -3 1
-11 24 -18 51 -10 40 -9 54 0 65 16 19 47 19 66 1z m3391 -796 c1 -463 5 -784
12 -830 6 -41 10 -243 11 -450 l0 -375 -28 31 c-50 56 -213 148 -285 160 -37
7 -57 14 -114 42 -38 18 -42 19 -48 4 -3 -9 -1 -18 4 -20 6 -2 11 -8 11 -12 0
-11 -156 65 -165 80 -4 7 -44 10 -100 9 -53 -1 -100 2 -107 8 -14 12 -60 22
-128 28 -25 3 -46 9 -48 15 -2 5 -12 10 -23 10 -11 0 -27 4 -37 8 -105 52
-195 98 -232 119 -24 14 -59 26 -76 26 -27 1 -35 7 -53 44 -12 24 -21 52 -21
63 0 10 -4 22 -10 25 -5 3 -10 17 -10 31 0 13 -4 24 -10 24 -5 0 -10 9 -10 20
0 11 -4 28 -9 38 -5 9 -15 31 -22 47 -25 54 -54 75 -104 75 -40 0 -45 2 -45
23 0 26 17 47 38 47 7 0 41 13 75 29 101 47 119 52 152 42 25 -8 26 -9 8 -10
-29 -1 -29 -6 1 -36 14 -14 37 -41 53 -62 15 -21 40 -51 56 -67 15 -16 27 -32
27 -36 0 -4 11 -20 25 -36 14 -16 25 -35 25 -41 0 -7 5 -13 10 -13 6 0 10 -10
10 -23 0 -13 5 -28 12 -35 17 -17 48 -15 48 3 0 8 5 15 10 15 6 0 10 26 10 59
0 33 -4 63 -10 66 -5 3 -10 15 -10 26 0 22 -40 112 -52 117 -4 2 -8 10 -8 17
0 7 -20 35 -45 61 l-44 49 62 14 c34 8 64 18 67 22 8 10 92 49 107 49 7 0 13
4 13 9 0 6 17 10 38 9 55 -1 92 22 185 115 21 21 40 37 41 35 2 -1 -10 -59
-26 -128 -40 -172 -49 -202 -59 -222 -5 -10 -9 -36 -9 -57 0 -22 -4 -42 -9
-45 -5 -3 -11 -23 -15 -43 -13 -88 -19 -113 -27 -119 -5 -3 -9 -16 -9 -29 0
-13 -4 -26 -9 -29 -10 -6 -22 -75 -21 -116 1 -14 1 -45 1 -69 l0 -43 20 23
c12 13 29 23 39 21 11 -2 21 5 25 18 3 11 11 20 16 20 5 0 9 6 9 14 0 8 10 34
21 58 20 40 30 62 49 113 5 11 15 37 24 58 39 90 44 105 61 152 9 28 25 69 36
92 10 24 19 47 19 53 0 6 4 18 9 28 5 9 14 31 21 47 7 17 16 38 21 47 5 10 9
25 9 33 0 8 5 15 10 15 6 0 10 14 10 30 0 17 5 30 10 30 6 0 10 8 10 18 0 10
4 22 9 27 5 6 12 21 14 35 3 14 3 -18 1 -70 -3 -52 -12 -124 -19 -160 -8 -36
-17 -78 -20 -95 -4 -16 -10 -39 -15 -50 -17 -39 -16 -80 2 -97 16 -16 18 -15
32 7 9 14 16 32 16 40 0 9 16 64 35 122 19 58 35 118 35 133 0 15 3 30 7 34 4
3 15 35 24 69 10 34 27 96 39 137 12 41 26 91 30 110 18 76 42 166 50 185 4
11 13 40 20 65 15 54 29 98 41 125 17 40 39 116 39 134 0 10 3 21 7 25 11 11
33 79 33 104 0 12 5 22 11 22 6 0 9 7 6 15 -4 8 0 27 8 42 8 15 15 38 15 51 0
12 5 22 10 22 6 0 10 5 10 12 0 7 10 34 23 59 18 40 24 45 32 31 6 -11 11
-289 12 -772z m-1690 758 c-3 -8 -6 -5 -6 6 -1 11 2 17 5 13 3 -3 4 -12 1 -19z
m773 -4 c0 -9 -5 -14 -12 -12 -18 6 -21 28 -4 28 9 0 16 -7 16 -16z m168 -129
c-13 -29 -81 -65 -121 -65 -42 0 -157 38 -157 52 0 4 13 16 29 27 21 15 45 21
83 21 33 0 66 7 88 19 l35 19 27 -25 c22 -21 25 -29 16 -48z m-3608 26 c0 -11
5 -23 10 -26 6 -3 10 -15 10 -26 0 -10 5 -19 10 -19 6 0 10 -9 10 -20 0 -11 5
-20 10 -20 6 0 10 -7 10 -15 0 -8 11 -39 25 -69 14 -30 22 -62 19 -70 -3 -9
-1 -16 5 -16 6 0 18 -18 27 -40 9 -22 20 -40 25 -40 5 0 9 -6 9 -13 0 -18 24
-67 33 -67 4 0 7 -9 7 -20 0 -11 4 -20 8 -20 9 0 19 -29 42 -120 6 -25 16 -59
21 -76 5 -17 9 -38 9 -47 0 -9 5 -17 10 -17 6 0 10 -13 10 -30 0 -16 5 -30 10
-30 6 0 10 -12 10 -26 0 -22 3 -24 14 -15 17 14 21 8 31 -39 4 -19 11 -41 15
-50 23 -43 50 -112 50 -125 0 -8 5 -15 10 -15 6 0 10 -6 10 -12 0 -7 9 -24 20
-38 11 -14 20 -31 20 -38 0 -7 16 -36 35 -65 19 -28 35 -57 35 -64 0 -6 3 -13
8 -15 10 -4 72 -94 72 -105 0 -5 9 -15 20 -23 11 -8 20 -19 20 -25 0 -6 9 -17
20 -25 11 -8 20 -20 20 -26 0 -6 14 -25 30 -42 17 -18 30 -37 30 -43 0 -7 8
-19 19 -28 10 -9 35 -43 56 -76 21 -33 41 -62 45 -65 4 -3 17 -25 31 -50 13
-25 32 -54 42 -64 9 -11 17 -26 17 -33 0 -7 5 -13 10 -13 6 0 10 -7 10 -15 0
-8 5 -15 10 -15 6 0 10 -6 10 -14 0 -8 7 -16 15 -20 8 -3 15 -9 15 -13 0 -11
-49 -33 -72 -33 -10 0 -18 -4 -18 -9 0 -5 -26 -12 -57 -14 -32 -3 -83 -10
-113 -17 -30 -6 -71 -13 -90 -16 -19 -3 -59 -16 -88 -30 -56 -26 -159 -49
-259 -58 -68 -6 -143 -26 -143 -38 0 -5 -7 -8 -15 -8 -8 0 -23 -4 -33 -9 -9
-5 -32 -16 -49 -23 -18 -7 -33 -16 -33 -20 0 -5 -9 -8 -19 -8 -11 0 -21 -3
-23 -7 -1 -5 -23 -19 -48 -32 -25 -14 -48 -29 -52 -35 -5 -8 -11 -7 -20 2 -14
14 -48 16 -48 2 0 -5 -7 -10 -15 -10 -8 0 -15 -4 -15 -10 0 -5 -7 -10 -15 -10
-8 0 -15 -4 -15 -10 0 -15 11 -12 49 11 18 11 38 18 45 15 6 -2 3 -5 -6 -5
-10 -1 -18 -5 -18 -11 0 -5 -7 -10 -15 -10 -8 0 -15 -4 -15 -10 0 -11 -70 -43
-78 -35 -3 2 -1 10 5 17 5 8 10 203 12 458 2 245 6 449 9 455 3 5 10 86 14
180 5 93 13 220 18 280 5 61 14 164 19 230 9 112 16 175 40 380 5 44 14 121
20 170 17 147 47 285 62 285 5 0 9 -9 9 -19z m1295 6 c17 -4 15 -22 -3 -20 -9
1 -24 -8 -34 -19 -20 -24 -38 -17 -18 7 7 8 8 15 3 15 -5 0 -10 7 -10 16 0 15
6 15 62 1z m1935 -47 c0 -5 -4 -10 -10 -10 -5 0 -10 5 -10 10 0 6 5 10 10 10
6 0 10 -4 10 -10z m-1830 -94 c0 -11 -19 -15 -25 -6 -3 5 1 10 9 10 9 0 16 -2
16 -4z m-210 -71 c7 -9 8 -15 2 -15 -5 0 -12 7 -16 15 -3 8 -4 15 -2 15 2 0 9
-7 16 -15z m1355 -205 c-7 -12 8 -12 58 -1 20 5 39 5 42 1 3 -5 15 -7 27 -5
11 3 26 1 32 -3 21 -13 35 -10 29 5 -4 11 -2 14 8 11 8 -3 13 -11 11 -18 -2
-10 0 -11 10 -2 15 12 199 21 191 10 -2 -5 34 -9 81 -10 47 -1 101 -3 119 -5
17 -2 42 -4 55 -5 21 0 21 -1 6 -12 -14 -11 -11 -12 19 -10 30 3 43 -3 72 -31
19 -19 39 -35 44 -35 5 0 11 -7 14 -14 4 -11 1 -13 -11 -10 -15 5 -15 4 1 -6
10 -7 16 -22 15 -38 -1 -15 1 -33 5 -39 11 -17 -11 -27 -28 -13 -12 10 -15 9
-15 -4 0 -9 5 -16 10 -16 15 0 12 -28 -4 -37 -8 -4 -17 -21 -20 -37 -3 -16
-10 -34 -16 -40 -5 -5 -10 -18 -10 -28 0 -10 -4 -18 -10 -18 -5 0 -10 5 -10
10 0 6 -4 10 -10 10 -20 0 -10 -38 13 -45 l22 -8 -22 -4 c-13 -2 -23 -9 -23
-14 0 -6 -4 -7 -10 -4 -6 4 -10 -6 -10 -24 0 -21 -7 -35 -24 -47 -14 -8 -22
-22 -20 -29 6 -14 -12 -15 -33 -2 -8 5 -13 4 -13 -2 0 -6 5 -11 10 -11 6 0 10
-9 10 -19 0 -20 -55 -55 -70 -46 -4 3 -14 -3 -21 -11 -19 -23 -137 -99 -171
-110 -10 -4 -18 -10 -18 -15 0 -5 -6 -9 -13 -9 -7 0 -23 -9 -35 -20 -12 -11
-25 -20 -31 -20 -5 0 -11 -3 -13 -7 -6 -15 -89 -52 -103 -46 -9 3 -21 1 -28
-5 -6 -6 -23 -11 -37 -11 -42 -1 -115 -13 -120 -20 -10 -12 -155 -56 -178 -53
-13 2 -30 -2 -38 -9 -10 -8 -46 -10 -122 -6 -119 6 -164 15 -302 62 -140 48
-164 55 -186 55 -11 0 -28 6 -39 14 -11 7 -43 17 -72 21 -30 4 -54 13 -57 21
-3 8 -13 14 -21 14 -16 0 -45 23 -45 35 0 9 -33 41 -37 37 -2 -2 -9 -1 -16 1
-7 3 -5 6 6 6 19 1 20 3 11 25 -4 10 -18 16 -35 16 -25 0 -30 5 -35 29 -8 37
-39 71 -64 71 -11 0 -20 5 -20 11 0 5 4 8 8 5 4 -2 14 0 22 5 12 8 10 14 -15
34 -16 14 -26 25 -22 25 5 0 1 7 -7 16 -9 8 -14 20 -11 25 4 5 -1 9 -10 9 -9
0 -13 5 -10 10 8 13 -1 13 -28 -1 -20 -9 -20 -9 -4 4 24 19 21 27 -8 27 -14 0
-25 5 -25 10 0 6 7 10 15 10 8 0 15 4 15 10 0 5 -3 9 -7 9 -22 -4 -31 5 -42
40 -6 21 -18 42 -27 45 -8 3 -12 10 -9 16 3 5 1 10 -5 10 -7 0 -10 6 -7 14 3
7 2 17 -3 22 -22 22 -18 63 8 91 14 15 30 27 34 25 5 -1 18 3 29 9 34 18 187
39 292 40 31 1 60 6 64 12 3 6 1 7 -5 3 -7 -4 -12 -1 -12 6 0 8 9 14 20 14 11
0 20 -6 20 -13 0 -7 9 -13 20 -13 11 0 20 5 20 10 0 6 21 10 48 10 30 0 42 -3
33 -9 -7 -5 -9 -11 -5 -14 16 -9 143 -7 149 3 4 6 11 7 17 4 7 -4 8 -2 4 4 -5
8 3 12 24 12 22 0 29 4 24 13 -6 8 -3 8 9 -1 9 -8 21 -11 27 -7 6 4 18 1 27
-7 14 -11 16 -11 8 2 -5 8 4 5 19 -8 28 -21 104 -32 92 -13 -3 5 8 14 25 21
26 11 32 11 40 -1 5 -8 9 -9 9 -3 0 14 48 25 56 13 3 -5 13 -9 22 -9 15 0 15
2 2 10 -11 8 -4 10 25 8 22 -1 43 -6 46 -11 4 -6 15 -7 25 -3 19 8 98 16 191
19 28 1 55 5 59 10 11 10 16 9 9 -3z m-1085 -40 c0 -5 -7 -10 -15 -10 -8 0
-15 5 -15 10 0 6 7 10 15 10 8 0 15 -4 15 -10z m-523 -627 c13 -13 27 -23 31
-23 4 0 31 -21 59 -47 45 -43 81 -72 117 -95 7 -6 8 -10 1 -15 -17 -12 -75
-105 -75 -119 0 -26 13 -44 30 -44 11 0 22 -4 25 -10 11 -18 30 -11 75 30 24
22 50 40 57 40 7 0 13 5 13 10 0 6 6 10 14 10 7 0 21 11 30 25 13 20 22 24 44
19 15 -4 31 -11 36 -15 6 -5 18 -9 28 -9 10 0 18 -4 18 -10 0 -5 10 -10 23
-10 13 0 27 -4 33 -9 5 -5 29 -12 54 -15 147 -18 140 -15 140 -54 0 -26 -3
-32 -12 -24 -7 5 -30 15 -51 20 -57 16 -127 -13 -127 -52 0 -9 -4 -16 -10 -16
-5 0 -10 -9 -10 -19 0 -11 -4 -23 -10 -26 -5 -3 -10 -22 -10 -41 0 -19 -4 -34
-10 -34 -5 0 -10 -13 -10 -30 0 -16 -4 -30 -10 -30 -5 0 -10 -9 -10 -19 0 -11
-4 -23 -10 -26 -5 -3 -10 -15 -10 -26 0 -10 -4 -27 -9 -37 -5 -9 -13 -30 -18
-47 -5 -18 -16 -31 -28 -33 -29 -5 -67 -24 -95 -49 -14 -13 -29 -23 -35 -23
-5 0 -23 -11 -38 -24 -33 -29 -84 -43 -100 -27 -16 16 -18 61 -2 61 21 0 29
19 18 43 -6 12 -16 36 -23 52 -7 17 -16 38 -21 47 -5 10 -9 27 -9 38 0 11 -4
28 -9 38 -15 31 -31 88 -31 115 0 14 -4 28 -9 31 -5 3 -11 20 -14 38 -6 41
-44 202 -57 244 -6 17 -10 42 -10 57 0 14 -4 29 -10 32 -5 3 -10 24 -10 45 0
21 -4 42 -10 45 -5 3 -10 19 -10 36 0 27 1 28 22 17 12 -7 32 -23 45 -35z
m229 -133 c8 0 11 -6 7 -16 -6 -15 -8 -15 -20 2 -7 10 -13 23 -12 28 0 6 3 5
6 -1 2 -7 11 -13 19 -13z m3212 -67 l-1 -88 -6 65 c-3 36 -4 75 -2 88 7 45 11
20 9 -65z m-898 -425 c0 -18 -2 -20 -9 -8 -6 8 -7 18 -5 22 9 14 14 9 14 -14z
m-20 -58 c0 -11 -4 -20 -9 -20 -5 0 -7 9 -4 20 3 11 7 20 9 20 2 0 4 -9 4 -20z
m605 -420 c17 -16 34 -30 39 -30 9 0 115 -69 134 -87 6 -6 22 -15 34 -19 40
-12 99 -57 114 -86 8 -16 23 -28 34 -28 11 0 27 -11 36 -25 9 -14 21 -25 26
-25 5 0 34 -20 62 -45 29 -25 58 -45 65 -45 6 0 11 -4 11 -10 0 -5 7 -10 15
-10 8 0 15 -4 15 -10 0 -5 9 -10 19 -10 11 0 21 -3 23 -7 6 -16 87 -73 102
-73 8 0 18 -4 21 -10 3 -5 12 -10 20 -10 14 0 145 -72 184 -102 l24 -18 -32 6
c-35 7 -41 -5 -12 -26 20 -13 20 -14 -1 -32 -12 -10 -24 -18 -27 -18 -17 0
-159 -152 -189 -202 -9 -15 -20 -28 -24 -28 -4 0 -8 -9 -8 -20 0 -11 -4 -20
-10 -20 -5 0 -10 -5 -10 -11 0 -19 -28 -39 -54 -39 -27 0 -66 17 -78 35 -4 6
-20 10 -35 10 -16 0 -27 5 -26 11 1 7 -17 15 -42 18 -24 4 -49 14 -55 21 -7 8
-21 15 -31 15 -10 0 -21 5 -24 10 -3 6 -17 10 -31 10 -13 0 -24 4 -24 8 0 11
-61 32 -92 32 -15 0 -28 4 -30 8 -3 9 -92 52 -107 52 -5 0 -18 10 -28 23 -10
13 -26 26 -36 30 -9 3 -17 10 -16 14 4 24 -2 53 -10 48 -6 -3 -8 6 -5 20 3 16
0 25 -8 25 -8 0 -14 17 -16 44 -5 78 -10 107 -24 124 -11 13 -11 15 2 7 11 -6
10 -3 -2 12 -10 11 -18 31 -18 45 0 34 -53 106 -82 110 -21 3 -23 8 -20 53 1
28 5 100 8 162 5 99 8 113 25 118 10 4 23 4 28 1 5 -3 20 -2 33 4 40 16 99 3
133 -30z m-3601 -36 c9 -3 16 -17 16 -30 0 -17 6 -24 20 -24 23 0 25 -12 8
-40 -9 -14 -9 -25 -1 -42 10 -21 15 -42 28 -133 5 -35 -7 -78 -47 -158 -15
-32 -28 -67 -28 -77 0 -10 -4 -22 -10 -25 -5 -3 -10 -18 -10 -32 0 -18 -4 -24
-14 -20 -9 4 -17 -2 -21 -14 -8 -25 -69 -89 -85 -89 -6 0 -9 -4 -6 -8 3 -5 -6
-15 -19 -22 -14 -7 -25 -17 -25 -22 0 -5 -4 -6 -10 -3 -5 3 -10 -1 -10 -9 0
-9 -8 -16 -19 -16 -11 0 -26 -6 -33 -12 -23 -22 -57 -38 -78 -38 -11 0 -20 -4
-20 -10 0 -5 -9 -10 -20 -10 -11 0 -20 -4 -20 -10 0 -5 -9 -10 -20 -10 -11 0
-20 -5 -20 -12 0 -6 -3 -8 -6 -5 -4 3 -16 1 -28 -5 -11 -7 -34 -14 -51 -15
-16 -2 -41 -8 -55 -13 -14 -5 -37 -11 -52 -14 -15 -2 -42 -12 -61 -21 -19 -9
-38 -15 -43 -14 -11 3 -58 -15 -97 -36 -41 -22 -67 -19 -67 6 0 18 -35 94 -50
109 -3 3 -12 17 -20 32 -29 51 -161 181 -212 207 -27 14 -43 50 -34 79 6 19
43 37 94 46 18 3 43 17 56 31 13 14 28 25 35 25 6 0 11 5 11 10 0 6 6 10 13
10 18 0 94 37 102 50 3 5 15 10 26 10 10 0 19 4 19 8 0 11 69 32 107 32 16 0
64 20 109 46 114 65 117 67 134 84 27 28 78 60 94 60 9 0 16 3 16 8 0 9 74 42
95 42 8 0 23 4 33 8 9 5 42 21 72 35 96 46 169 65 204 51z m293 -830 c16 -33
-1 -63 -39 -71 -16 -3 -28 -9 -28 -14 0 -5 -6 -9 -14 -9 -33 0 -136 -75 -136
-100 0 -5 -3 -10 -8 -10 -4 0 -19 -10 -33 -22 -14 -13 -34 -28 -45 -34 -31
-18 -73 -86 -79 -130 -12 -75 34 -126 98 -110 24 6 67 38 67 50 0 14 89 96
104 96 9 0 24 4 34 9 32 17 125 51 138 51 8 0 14 5 14 10 0 15 59 12 107 -6
24 -9 43 -22 43 -30 0 -7 6 -14 12 -16 25 -9 -38 -37 -105 -48 -38 -6 -87 -17
-110 -25 -23 -8 -52 -15 -64 -15 -12 0 -25 -4 -28 -10 -3 -5 -17 -10 -31 -10
-21 0 -60 -15 -74 -30 -3 -3 -22 -18 -42 -33 -21 -15 -38 -35 -38 -43 0 -7 -4
-14 -10 -14 -5 0 -10 -8 -10 -18 0 -10 -5 -23 -11 -29 -6 -6 -11 -42 -11 -81
-1 -62 2 -73 25 -96 14 -14 31 -26 36 -26 6 0 21 -11 35 -25 32 -32 38 -32 55
7 26 57 105 125 84 72 -7 -18 8 -18 33 1 10 8 38 15 61 15 90 0 197 31 224 64
27 33 49 6 49 -58 l0 -52 -42 -11 c-24 -7 -105 -19 -181 -28 -86 -10 -155 -24
-185 -37 -69 -30 -126 -95 -142 -162 -12 -51 -11 -56 9 -85 12 -17 26 -31 30
-31 5 0 14 -13 21 -30 13 -30 50 -43 50 -17 0 19 70 51 83 38 6 -6 24 -11 39
-11 15 0 28 -4 28 -10 0 -5 9 -10 20 -10 11 0 28 -4 38 -9 30 -15 85 -30 140
-37 l52 -7 0 -42 0 -43 -62 3 c-58 2 -116 11 -226 36 -23 5 -56 9 -73 9 -29 0
-69 30 -69 51 0 5 -7 6 -15 3 -8 -4 -15 -10 -15 -16 0 -21 -28 -35 -74 -35
-26 -1 -53 -6 -59 -12 -6 -6 -18 -11 -27 -11 -9 0 -21 -5 -28 -12 -6 -6 -23
-12 -38 -14 -15 -2 -35 -12 -46 -24 -12 -12 -27 -19 -35 -16 -9 4 -22 1 -29
-5 -8 -6 -14 -7 -14 -2 0 5 -10 9 -22 9 -70 1 -99 5 -93 14 3 6 -1 10 -10 10
-9 0 -14 4 -11 8 2 4 -12 9 -32 10 -21 1 -44 10 -52 20 -8 10 -26 25 -40 35
-13 9 -19 17 -12 17 7 0 12 15 12 39 0 22 5 43 10 46 6 3 10 15 10 26 0 10 4
27 9 37 5 9 17 44 27 77 22 72 52 105 94 105 18 0 33 6 36 15 4 8 12 15 20 15
8 0 14 9 14 21 0 11 6 27 14 34 12 13 27 54 78 225 18 60 57 158 79 202 5 10
9 27 9 37 0 11 5 23 10 26 6 3 10 15 10 25 0 10 4 20 9 22 10 3 45 59 63 98 6
16 28 33 54 44 24 10 60 33 81 53 21 19 58 49 83 66 25 17 51 37 58 44 19 18
25 16 39 -13z m2786 -54 c18 -16 38 -30 45 -30 6 0 12 -4 12 -8 0 -5 16 -14
35 -22 20 -8 43 -22 52 -32 9 -10 22 -18 30 -18 7 0 13 -6 13 -12 0 -7 18 -32
40 -56 22 -24 40 -50 40 -58 0 -8 11 -39 23 -67 13 -29 27 -64 31 -79 3 -15
16 -38 29 -51 33 -35 47 -63 47 -97 0 -16 9 -45 20 -65 11 -20 20 -46 20 -60
0 -13 5 -27 10 -30 6 -3 10 -17 10 -30 0 -25 10 -53 43 -122 17 -37 25 -43 50
-43 35 0 77 -34 77 -61 0 -10 5 -21 10 -24 27 -17 0 -96 -31 -88 -11 3 -19 -3
-24 -19 -5 -12 -18 -39 -31 -59 -13 -20 -20 -40 -16 -45 4 -4 2 -5 -3 -1 -6 3
-17 2 -25 -4 -11 -6 -12 -9 -2 -9 7 0 2 -11 -12 -25 -14 -14 -30 -25 -36 -25
-6 0 -8 -4 -5 -10 3 -5 -3 -10 -15 -10 -12 0 -19 -3 -17 -8 3 -4 -17 -8 -45
-10 -27 -2 -47 1 -44 6 7 12 -37 9 -46 -3 -5 -6 -8 -5 -8 3 0 9 -5 10 -19 2
-13 -7 -22 -7 -26 0 -3 5 -1 10 4 10 6 0 11 5 11 10 0 6 -9 10 -20 10 -11 0
-20 -7 -20 -15 0 -12 -7 -14 -27 -9 -16 4 -29 11 -31 16 -2 4 -10 8 -18 8 -7
0 -21 12 -31 28 -9 15 -19 29 -20 32 -2 2 -14 -8 -26 -23 -17 -22 -38 -31 -92
-43 -125 -26 -189 -36 -257 -39 l-68 -2 0 42 0 43 48 7 c43 6 149 35 197 54
99 39 130 40 147 1 7 -16 15 -30 18 -30 14 1 28 18 33 40 3 14 12 43 20 64 12
31 12 46 3 72 -13 38 -47 84 -61 84 -17 0 -65 46 -65 62 0 31 -41 44 -175 54
-33 3 -71 9 -85 14 -14 5 -46 11 -72 15 l-48 6 0 60 c0 46 4 61 16 66 10 4 20
0 25 -10 15 -26 66 -46 152 -57 45 -6 97 -14 115 -16 17 -3 32 -9 32 -14 0 -6
5 -10 11 -10 6 0 8 9 4 20 -4 12 -2 20 5 20 14 0 68 -59 76 -82 3 -10 10 -18
15 -18 5 0 9 -7 9 -15 0 -10 6 -12 18 -8 24 10 42 29 42 46 0 9 6 17 13 20 8
2 12 28 11 83 0 70 -4 86 -34 138 -34 61 -75 105 -97 106 -7 0 -13 4 -13 9 0
5 -26 11 -57 15 -93 9 -133 18 -133 27 0 5 -15 9 -34 9 -19 0 -38 5 -41 10 -3
6 -16 10 -29 10 -31 0 -52 40 -37 69 10 17 16 19 31 11 10 -5 39 -10 64 -10
25 0 46 -4 46 -9 0 -9 43 -19 110 -27 32 -4 58 -13 102 -35 10 -5 23 -9 30 -9
16 0 198 -190 198 -207 0 -7 5 -13 10 -13 6 0 10 6 10 14 0 8 -4 18 -10 21 -5
3 -10 31 -10 61 0 30 -4 62 -9 72 -5 9 -13 28 -19 42 -26 68 -110 226 -129
246 -13 12 -62 42 -110 66 -57 28 -89 50 -91 62 -9 46 60 44 111 -4z m-3348
-335 c50 -49 71 -95 45 -95 -5 0 -10 -9 -10 -20 0 -11 -4 -20 -10 -20 -5 0
-10 -13 -10 -30 0 -16 -4 -30 -10 -30 -5 0 -10 -9 -10 -21 0 -24 -15 -55 -41
-83 -11 -11 -19 -31 -19 -46 0 -28 -23 -67 -52 -88 -10 -7 -18 -20 -18 -28 0
-22 -44 -7 -81 27 -25 24 -40 29 -79 29 l-47 0 -7 93 c-3 50 -8 108 -11 127
-5 40 11 90 30 90 6 0 26 -16 44 -35 17 -19 38 -35 45 -35 28 0 46 12 46 31 0
20 15 26 25 9 3 -5 22 -10 41 -10 33 0 34 1 34 40 0 22 -4 40 -10 40 -5 0 -10
-6 -10 -14 0 -24 -18 -28 -43 -11 -28 18 -77 6 -77 -20 0 -19 -16 -20 -23 -1
-3 8 -21 22 -38 32 -26 13 -37 14 -51 5 -16 -10 -18 -8 -18 14 0 29 26 45 74
45 39 0 121 17 149 31 10 6 17 5 17 -1 0 -5 11 -10 25 -10 18 0 25 5 25 20 0
32 16 24 75 -35z m3925 26 c0 -12 60 -22 169 -26 52 -3 96 -7 99 -10 3 -3 7
-97 10 -210 l5 -205 -47 0 c-25 0 -46 5 -46 10 0 6 -17 10 -39 10 -39 0 -68
-20 -103 -70 -15 -21 -19 -23 -27 -10 -5 8 -19 26 -31 40 -13 16 -20 33 -17
48 5 27 -15 97 -44 154 -5 10 -9 24 -9 32 0 8 -11 34 -25 57 -14 24 -25 54
-25 66 0 12 -4 24 -10 28 -18 11 1 36 24 30 16 -5 18 -4 6 4 -17 12 -14 16 36
41 42 21 74 26 74 11z m-4782 -240 c-1 -49 -5 -91 -8 -94 -3 -3 -40 -2 -82 0
l-78 6 -1 41 -2 41 -6 -35 c-6 -33 -8 -35 -41 -32 -19 2 -39 7 -45 12 -5 4
-30 15 -55 23 -25 8 -45 19 -45 23 0 11 71 25 143 29 35 2 57 8 65 19 10 13
116 52 150 55 5 1 7 -39 5 -88z m5537 46 c11 -41 1 -180 -12 -185 -10 -3 -13
22 -13 102 0 63 4 106 10 106 5 0 12 -10 15 -23z m210 -44 c10 -13 43 -20 172
-39 30 -5 40 -10 36 -20 -3 -8 -15 -14 -27 -14 -12 0 -26 -4 -31 -9 -9 -8 -36
-13 -145 -27 -25 -4 -51 -11 -58 -16 -19 -16 -21 -9 -28 75 l-6 76 38 -6 c22
-4 44 -13 49 -20z m-938 -555 c-3 -7 -5 -2 -5 12 0 14 2 19 5 13 2 -7 2 -19 0
-25z m852 -1750 c0 -176 -13 -171 -22 8 -5 87 -3 124 5 132 7 7 13 12 15 12 2
0 3 -69 2 -152z"/>
<path d="M7933 6600 c0 -36 2 -50 4 -32 2 17 2 47 0 65 -2 17 -4 3 -4 -33z"/>
<path d="M6326 6273 c-11 -11 -6 -23 9 -23 8 0 15 4 15 9 0 13 -16 22 -24 14z"/>
<path d="M6776 4735 c-3 -8 -1 -15 4 -15 6 0 10 7 10 15 0 8 -2 15 -4 15 -2 0
-6 -7 -10 -15z"/>
<path d="M6390 4351 c0 -12 5 -21 10 -21 6 0 10 6 10 14 0 8 -4 18 -10 21 -5
3 -10 -3 -10 -14z"/>
<path d="M5238 5713 c7 -3 16 -2 19 1 4 3 -2 6 -13 5 -11 0 -14 -3 -6 -6z"/>
<path d="M5443 5433 c-13 -8 -23 -22 -23 -29 0 -8 -4 -14 -10 -14 -5 0 -10 -9
-10 -20 0 -11 -4 -20 -10 -20 -5 0 -10 -9 -10 -21 0 -19 -4 -20 -77 -15 -43 3
-96 7 -118 10 -22 3 -51 1 -65 -4 -14 -5 -41 -11 -61 -14 -38 -7 -79 -35 -79
-55 0 -6 -4 -11 -10 -11 -17 0 -11 -47 6 -54 14 -5 37 7 64 34 13 13 94 50
110 50 10 0 20 6 23 13 3 8 11 5 24 -10 16 -18 31 -23 67 -23 25 0 46 5 46 10
0 6 11 10 25 10 23 0 25 -4 25 -47 0 -43 17 -111 31 -123 3 -3 10 -14 14 -25
7 -14 11 8 16 80 10 149 17 191 39 230 20 36 26 65 13 64 -5 0 -18 -7 -30 -16z"/>
<path d="M3344 2595 c-9 -35 5 -140 17 -128 14 14 33 117 26 136 -10 25 -36
20 -43 -8z"/>
<path d="M3331 2194 c0 -11 3 -14 6 -6 3 7 2 16 -1 19 -3 4 -6 -2 -5 -13z"/>
<path d="M3392 1915 c0 -16 2 -22 5 -12 2 9 2 23 0 30 -3 6 -5 -1 -5 -18z"/>
<path d="M6790 2461 c0 -5 5 -13 10 -16 6 -3 10 -2 10 4 0 5 -4 13 -10 16 -5
3 -10 2 -10 -4z"/>
<path d="M6750 1890 c0 -11 5 -20 10 -20 6 0 10 9 10 20 0 11 -4 20 -10 20 -5
0 -10 -9 -10 -20z"/>
<path d="M8357 3817 c-36 -31 -49 -69 -27 -82 5 -3 20 3 32 14 40 38 40 36 38
-77 -1 -57 3 -78 16 -93 17 -19 64 -27 64 -11 0 4 13 16 30 25 16 10 37 25 46
35 16 16 17 14 12 -24 -8 -55 20 -104 60 -104 10 0 41 11 68 25 27 14 54 25
59 25 6 0 15 -15 20 -32 14 -46 53 -63 114 -51 54 11 71 7 71 -13 0 -8 5 -14
10 -14 15 0 12 30 -6 47 -12 12 -28 14 -73 10 -63 -7 -101 9 -101 42 0 9 -5
22 -12 29 -13 13 -50 16 -62 5 -11 -11 -71 -30 -84 -25 -7 2 -12 24 -12 56 0
29 -5 57 -12 64 -17 17 -51 15 -74 -5 -21 -19 -60 -43 -69 -43 -3 0 -5 37 -5
83 0 64 -4 89 -20 115 -11 17 -25 32 -32 32 -7 -1 -30 -15 -51 -33z"/>
<path d="M864 945 c9 -9 16 -19 16 -23 0 -15 56 -32 103 -32 l49 0 -6 -36 c-5
-22 -3 -41 5 -50 14 -17 90 -19 106 -3 18 18 53 1 53 -27 0 -13 -4 -24 -10
-24 -5 0 -10 -9 -10 -20 0 -26 42 -44 70 -30 11 6 29 15 40 20 11 6 27 10 35
10 8 0 15 5 15 10 0 6 7 10 15 10 19 0 19 0 -9 -57 -36 -74 -38 -87 -17 -111
20 -24 32 -27 59 -13 9 5 49 24 87 41 39 18 72 36 75 40 3 5 19 12 35 16 26 6
28 5 17 -8 -10 -13 -10 -17 3 -22 22 -8 35 34 21 67 -11 23 -17 22 -89 -12
-34 -16 -77 -35 -94 -42 -18 -8 -33 -17 -33 -21 0 -5 -11 -8 -25 -8 -24 0 -34
14 -16 24 4 3 11 18 14 33 3 16 15 39 26 52 12 13 21 37 21 53 0 25 -3 28 -35
28 -19 0 -35 -4 -35 -10 0 -5 -8 -10 -19 -10 -10 0 -35 -7 -54 -15 -46 -19
-47 -19 -47 6 0 36 -25 50 -92 52 -63 2 -63 2 -60 30 5 44 -22 67 -79 67 -26
0 -58 4 -71 9 -13 4 -36 11 -52 15 -26 6 -27 6 -12 -9z"/>
<path d="M8593 563 c-7 -3 -13 -12 -13 -22 0 -23 -19 -41 -44 -41 -12 0 -39
-7 -61 -14 -43 -15 -55 -39 -35 -75 9 -17 8 -21 -5 -21 -8 0 -15 -4 -15 -10 0
-5 -15 -10 -34 -10 -19 0 -38 -4 -41 -10 -4 -6 13 -10 44 -10 28 0 51 5 51 10
0 6 9 10 20 10 15 0 20 7 20 24 0 14 -4 28 -10 31 -25 15 -8 33 38 39 56 7 92
29 92 56 0 10 6 20 13 23 8 3 9 8 2 15 -5 5 -16 7 -22 5z"/>
<path d="M2000 90 c0 -53 4 -90 10 -90 6 0 10 37 10 90 0 53 -4 90 -10 90 -6
0 -10 -37 -10 -90z"/>
</g>
</svg>
